ExampleDataM6
version=1
nRows=43
nColumns=19
inDegrees=no
endheader
time	l_ground_force_vx	l_ground_force_vy	l_ground_force_vz	l_ground_force_px	l_ground_force_py	l_ground_force_pz	ground_force_vx	ground_force_vy	ground_force_vz	ground_force_px	ground_force_py	ground_force_pz	l_ground_torque_x	l_ground_torque_y	l_ground_torque_z	ground_torque_x	ground_torque_y	ground_torque_z	
63.36	0	216.833730430512	0	0.198111550374547	0	-0.0168211031708561	0	649.476772868488	0	0.0821294255058414	0	0.0111627600628086	0	0	0	0	0	0
63.37	0	174.109623965343	0	0.188259923157148	0	-0.0173978453505763	0	651.190318825812	0	0.0826961110963708	0	0.0112288821026944	0	0	0	0	0	0
63.38	0	139.149309364295	0	0.171892312479941	0	-0.0178336860287966	0	651.727954856256	0	0.0831845457777085	0	0.0113392843357159	0	0	0	0	0	0
63.39	0	114.740820577432	0	0.149647824375296	0	-0.0179596092359466	0	652.438978852325	0	0.083635804131976	0	0.0114954848233867	0	0	0	0	0	0
63.4	0	100.876506086914	0	0.125255798177786	0	-0.0177077457553832	0	653.431010276938	0	0.0840936994955934	0	0.0116878120364623	0	0	0	0	0	0
63.41	0	94.7025122466338	0	0.103928876264503	0	-0.0172338579958626	0	653.473609675107	0	0.084604326014347	0	0.011913791394709	0	0	0	0	0	0
63.42	0	92.5532066447614	0	0.0891363649756933	0	-0.0167543462360598	0	651.177017940208	0	0.0851658121739087	0	0.0121670369313742	0	0	0	0	0	0
63.43	0	91.4935649973042	0	0.0808712444398631	0	-0.0163317031380373	0	646.568333651841	0	0.0857375504473378	0	0.012425372503705	0	0	0	0	0	0
63.44	0	89.712966655196	0	0.0765892843570879	0	-0.0159080692236057	0	641.035664244896	0	0.0863179448413023	0	0.0126698955182877	0	0	0	0	0	0
63.45	0	86.4961555191968	0	0.073226850630041	0	-0.0154874898351942	0	635.815183454692	0	0.0869513252962396	0	0.0129044650283205	0	0	0	0	0	0
63.46	0	82.0724195121865	0	0.0688337046190911	0	-0.01518753093085	0	631.278006385318	0	0.0876537342520431	0	0.0131451849983237	0	0	0	0	0	0
63.47	0	77.4341437277742	0	0.0633772496583483	0	-0.0151081269522393	0	627.518407923206	0	0.0884131055688347	0	0.0134019505524788	0	0	0	0	0	0
63.48	0	73.7627236548063	0	0.058144693803726	0	-0.015215617812754	0	624.817688737774	0	0.0892699793481957	0	0.0136812478558833	0	0	0	0	0	0
63.49	0	71.5663857029398	0	0.054177273455077	0	-0.015361164127656	0	623.515537113211	0	0.0903108347859973	0	0.0139917735820927	0	0	0	0	0	0
63.5	0	70.4064660536643	0	0.0513222236820941	0	-0.0154078631735292	0	623.853988982389	0	0.0915776346784799	0	0.0143317898465629	0	0	0	0	0	0
63.51	0	69.3998138610252	0	0.0486229146033969	0	-0.015338773779074	0	626.001367293418	0	0.0930480511612966	0	0.0146818786115746	0	0	0	0	0	0
63.52	0	67.962579435865	0	0.045414198826755	0	-0.0151965404504423	0	630.049200539972	0	0.0946747839485897	0	0.0150203646428864	0	0	0	0	0	0
63.53	0	66.1253610460533	0	0.0417793149272005	0	-0.0149897814115361	0	635.855360584371	0	0.0963870887923978	0	0.0153343576681758	0	0	0	0	0	0
63.54	0	64.1393763111195	0	0.037917450727032	0	-0.0147863713689339	0	643.007807461203	0	0.0980883580831085	0	0.0156124671296868	0	0	0	0	0	0
63.55	0	62.1379459379514	0	0.0337576531829244	0	-0.0147751190245664	0	651.096354433465	0	0.0997003204811616	0	0.0158440847878326	0	0	0	0	0	0
63.56	0	60.3453750417673	0	0.0295069854471669	0	-0.0150612881981539	0	660.02227785763	0	0.101232574877262	0	0.0160264334312636	0	0	0	0	0	0
63.57	0	59.1142109909717	0	0.025902564597469	0	-0.0155128780745645	0	670.132380718125	0	0.102800497388371	0	0.0161604621069792	0	0	0	0	0	0
63.58	0	58.5615439807765	0	0.0235654100730791	0	-0.0159138793561926	0	681.878278981365	0	0.104506797019682	0	0.0162482327163409	0	0	0	0	0	0
63.59	0	58.4901452809467	0	0.0224898828196713	0	-0.0161576043805404	0	695.09189479235	0	0.106307692042986	0	0.0163006876206024	0	0	0	0	0	0
63.6	0	58.6252014754563	0	0.0222483180756971	0	-0.0162568979726567	0	708.9992932659	0	0.108078506066505	0	0.0163329777078918	0	0	0	0	0	0
63.61	0	58.6977829556435	0	0.0223866701727138	0	-0.016269190789268	0	723.029110610307	0	0.109787486983637	0	0.0163499968722589	0	0	0	0	0	0
63.62	0	58.4858180841883	0	0.0226043302978122	0	-0.0162473766387882	0	737.042461703724	0	0.111535869079547	0	0.0163517597976347	0	0	0	0	0	0
63.63	0	58.0061446254624	0	0.0227587131229663	0	-0.0162249463383841	0	750.915634355693	0	0.113478587936941	0	0.0163440517801642	0	0	0	0	0	0
63.64	0	57.5753633075925	0	0.0228090891416771	0	-0.0162179328142481	0	764.246111195488	0	0.115741931402525	0	0.016328009433567	0	0	0	0	0	0
63.65	0	57.5583478005025	0	0.0227651560120132	0	-0.0162304423279759	0	776.109916463118	0	0.118335852467974	0	0.0162918842584654	0	0	0	0	0	0
63.66	0	58.1084574977424	0	0.0226658463419349	0	-0.016256557998709	0	785.180037308197	0	0.121125267420737	0	0.0162208447712008	0	0	0	0	0	0
63.67	0	59.1431881536318	0	0.0225887166915894	0	-0.0162766746342115	0	790.660886116483	0	0.123944229955405	0	0.0161042549240963	0	0	0	0	0	0
63.68	0	60.4090909356167	0	0.0226731761427711	0	-0.0162512386832035	0	792.99525566659	0	0.126735580559332	0	0.0159303419841448	0	0	0	0	0	0
63.69	0	61.5933872615069	0	0.0231233356415592	0	-0.0161206178161121	0	793.528480846021	0	0.129563415106159	0	0.0156797046165831	0	0	0	0	0	0
63.7	0	62.553762437158	0	0.0241364339790892	0	-0.0158263036037032	0	793.890948068403	0	0.132520382165072	0	0.0153321917146428	0	0	0	0	0	0
63.71	0	63.3932703566761	0	0.0256922470771536	0	-0.0153722626514233	0	795.562992655206	0	0.135655482665178	0	0.0148830797172917	0	0	0	0	0	0
63.72	0	64.147171842743	0	0.0273071355709551	0	-0.0148964903705485	0	799.367825059066	0	0.138966250719583	0	0.0143512173979316	0	0	0	0	0	0
63.73	0	64.4867909387458	0	0.0281491578944391	0	-0.0146376685111766	0	804.981735835776	0	0.142402577242738	0	0.0137751406168272	0	0	0	0	0	0
63.74	0	63.9721541109781	0	0.0276640602906388	0	-0.0147543794349211	0	810.825264761931	0	0.145913248818181	0	0.0131921979615269	0	0	0	0	0	0
63.75	0	62.5800993935322	0	0.0261275585265006	0	-0.0151691370254085	0	814.711083576956	0	0.14955809192552	0	0.0126024752501515	0	0	0	0	0	0
63.76	0	60.744717069602	0	0.0244782113130597	0	-0.0156263035002121	0	815.151975994166	0	0.15351684665451	0	0.011957588964315	0	0	0	0	0	0
63.77	0	58.8840688404632	0	0.0236594823237685	0	-0.0158941049055871	0	812.156498410693	0	0.157932459241566	0	0.0111988923374105	0	0	0	0	0	0
63.78	0	57.1976418096015	0	0.0241871317305461	0	-0.0158922916699757	0	806.665210203229	0	0.162796197899724	0	0.0103040575755704	0	0	0	0	0	0
